<svg xmlns="http://www.w3.org/2000/svg" width="800" height="600" viewBox="-0.5 -6.5 14.35 8">
<defs>
</defs>
<g stroke-width="0.018">
<polygon points="0,0 3,0 3,-3 0,-3" style="fill:rgba(255,255,255,0.10);stroke:none;stroke:none"/>
<polygon points="0,0 3,0 3,-3 0,-3 0,0" style="fill:none;fill:none;stroke:rgb(245,245,247);stroke-width:0.05"/>
<text x="1.02" y="-1.34" style="font-family:sans-serif;font-size:0.32;fill:rgb(245,245,247);stroke:none">:bath</text>
<polygon points="3,0 8,0 8,-3 3,-3" style="fill:rgba(255,255,255,0.10);stroke:none;stroke:none"/>
<polygon points="3,0 8,0 8,-3 3,-3 3,0" style="fill:none;fill:none;stroke:rgb(245,245,247);stroke-width:0.05"/>
<text x="4.828" y="-1.34" style="font-family:sans-serif;font-size:0.32;fill:rgb(245,245,247);stroke:none">:living</text>
<polygon points="0,-3 8,-3 8,-6 0,-6" style="fill:rgba(255,255,255,0.10);stroke:none;stroke:none"/>
<polygon points="0,-3 8,-3 8,-6 0,-6 0,-3" style="fill:none;fill:none;stroke:rgb(245,245,247);stroke-width:0.05"/>
<text x="2.464" y="-4.34" style="font-family:sans-serif;font-size:0.32;fill:rgb(245,245,247);stroke:none">:bed  (isolated)</text>
<polyline points="1.5,-1.5 4,-4.5" style="fill:none;stroke:rgb(245,245,247)"/>
<polyline points="4,-1.5 1.5,-4.5" style="fill:none;stroke:rgb(245,245,247)"/>
<text x="0" y="0.9" style="font-family:sans-serif;font-size:0.3;fill:rgb(245,245,247)">must_adjoin(:bath, :bed) violated - no shared wall.</text>
</g>
</svg>
