<svg xmlns="http://www.w3.org/2000/svg" width="800" height="600" viewBox="-0.5 -5.5 18 6">
<defs>
<marker id="arrowhead-end" markerWidth="10" markerHeight="7" refX="10" refY="3.5" orient="auto"><polygon points="0 0, 10 3.5, 0 7" fill="rgb(211,211,211)"/></marker>
<marker id="arrowhead-start" markerWidth="10" markerHeight="7" refX="0" refY="3.5" orient="auto"><polygon points="10 0, 0 3.5, 10 7" fill="rgb(211,211,211)"/></marker>
</defs>
<g stroke-width="0.022">
<polygon points="0,0 3,0 3,-2.5 0,-2.5" style="fill:rgb(235,238,244);stroke:none;stroke:none"/>
<polygon points="0,0 3,0 3,-2.5 0,-2.5 0,0" style="fill:none;fill:none;stroke:rgb(55,70,95);stroke-width:0.04"/>
<text x="0.828" y="-1.09" style="font-family:sans-serif;font-size:0.32;fill:rgb(30,30,30);stroke:none">3 × 2.5</text>
<polygon points="4,0 9,0 9,-4 4,-4" style="fill:rgb(235,238,244);stroke:none;stroke:none"/>
<polygon points="4,0 9,0 9,-4 4,-4 4,0" style="fill:none;fill:none;stroke:rgb(55,70,95);stroke-width:0.04"/>
<text x="6.02" y="-1.84" style="font-family:sans-serif;font-size:0.32;fill:rgb(30,30,30);stroke:none">5 × 4</text>
<polygon points="10,0 17,0 17,-5 10,-5" style="fill:rgb(235,238,244);stroke:none;stroke:none"/>
<polygon points="10,0 17,0 17,-5 10,-5 10,0" style="fill:none;fill:none;stroke:rgb(55,70,95);stroke-width:0.04"/>
<text x="13.02" y="-2.34" style="font-family:sans-serif;font-size:0.32;fill:rgb(30,30,30);stroke:none">7 × 5</text>
<text x="0" y="1" style="font-family:sans-serif;font-size:0.3;fill:rgb(30,30,30);stroke:none">room(:id, :use, width, depth)</text>
</g>
</svg>
