<svg xmlns="http://www.w3.org/2000/svg" width="800" height="600" viewBox="-0.5 -3.5 17 4">
<defs>
<marker id="arrowhead-end" markerWidth="10" markerHeight="7" refX="10" refY="3.5" orient="auto"><polygon points="0 0, 10 3.5, 0 7" fill="rgb(211,211,211)"/></marker>
<marker id="arrowhead-start" markerWidth="10" markerHeight="7" refX="0" refY="3.5" orient="auto"><polygon points="10 0, 0 3.5, 10 7" fill="rgb(211,211,211)"/></marker>
</defs>
<g stroke-width="0.021">
<polygon points="0,0 4,0 4,-3 0,-3" style="fill:rgba(255,255,255,0.10);stroke:none;stroke:none"/>
<polygon points="0,0 4,0 4,-3 0,-3 0,0" style="fill:none;fill:none;stroke:rgb(245,245,247);stroke-width:0.05"/>
<text x="1.808" y="-1.34" style="font-family:sans-serif;font-size:0.32;fill:rgb(245,245,247);stroke:none">u1</text>
<polygon points="4,0 8,0 8,-3 4,-3" style="fill:rgba(255,255,255,0.10);stroke:none;stroke:none"/>
<polygon points="4,0 8,0 8,-3 4,-3 4,0" style="fill:none;fill:none;stroke:rgb(245,245,247);stroke-width:0.05"/>
<text x="5.712" y="-1.34" style="font-family:sans-serif;font-size:0.32;fill:rgb(245,245,247);stroke:none">u2ᵣ</text>
<polygon points="8,0 12,0 12,-3 8,-3" style="fill:rgba(255,255,255,0.10);stroke:none;stroke:none"/>
<polygon points="8,0 12,0 12,-3 8,-3 8,0" style="fill:none;fill:none;stroke:rgb(245,245,247);stroke-width:0.05"/>
<text x="9.808" y="-1.34" style="font-family:sans-serif;font-size:0.32;fill:rgb(245,245,247);stroke:none">u3</text>
<polygon points="12,0 16,0 16,-3 12,-3" style="fill:rgba(255,255,255,0.10);stroke:none;stroke:none"/>
<polygon points="12,0 16,0 16,-3 12,-3 12,0" style="fill:none;fill:none;stroke:rgb(245,245,247);stroke-width:0.05"/>
<text x="13.712" y="-1.34" style="font-family:sans-serif;font-size:0.32;fill:rgb(245,245,247);stroke:none">u4ᵣ</text>
<text x="0" y="1" style="font-family:sans-serif;font-size:0.35;fill:rgb(245,245,247);stroke:none">repeat_unit(unit, 4; mirror_alternate=true)</text>
</g>
</svg>
