<svg xmlns="http://www.w3.org/2000/svg" width="800" height="600" viewBox="-0.5 -3.5 9 4">
<defs>
<marker id="arrowhead-end" markerWidth="10" markerHeight="7" refX="10" refY="3.5" orient="auto"><polygon points="0 0, 10 3.5, 0 7" fill="rgb(211,211,211)"/></marker>
<marker id="arrowhead-start" markerWidth="10" markerHeight="7" refX="0" refY="3.5" orient="auto"><polygon points="10 0, 0 3.5, 10 7" fill="rgb(211,211,211)"/></marker>
</defs>
<g stroke-width="0.011">
<polygon points="0,0 4,0 4,-3 0,-3" style="fill:rgb(235,238,244);stroke:none;stroke:none"/>
<polygon points="0,0 4,0 4,-3 0,-3 0,0" style="fill:none;fill:none;stroke:rgb(55,70,95);stroke-width:0.04"/>
<text x="1.328" y="-1.34" style="font-family:sans-serif;font-size:0.32;fill:rgb(30,30,30);stroke:none">:living</text>
<polygon points="4,0 8,0 8,-3 4,-3" style="fill:rgb(235,238,244);stroke:none;stroke:none"/>
<polygon points="4,0 8,0 8,-3 4,-3 4,0" style="fill:none;fill:none;stroke:rgb(55,70,95);stroke-width:0.04"/>
<text x="5.232" y="-1.34" style="font-family:sans-serif;font-size:0.32;fill:rgb(30,30,30);stroke:none">:kitchen</text>
<rect x="3.88" y="-2" width="0.24" height="1" style="fill:rgb(90,150,90);stroke:none;stroke:none"/>
<text x="4.4" y="-1.3" style="font-family:sans-serif;font-size:0.28;fill:rgb(30,30,30);stroke:none">:door</text>
<text x="0" y="1" style="font-family:sans-serif;font-size:0.3;fill:rgb(30,30,30);stroke:none">connect(desc, :living, :kitchen; kind=:door)</text>
</g>
</svg>
