<svg xmlns="http://www.w3.org/2000/svg" width="800" height="600" viewBox="-2 -3.96 6.5 4.46">
<defs>
<marker id="arrowhead-end" markerWidth="10" markerHeight="7" refX="10" refY="3.5" orient="auto"><polygon points="0 0, 10 3.5, 0 7" fill="rgb(211,211,211)"/></marker>
<marker id="arrowhead-start" markerWidth="10" markerHeight="7" refX="0" refY="3.5" orient="auto"><polygon points="10 0, 0 3.5, 10 7" fill="rgb(211,211,211)"/></marker>
</defs>
<g stroke-width="0.008">
<polygon points="0,0 4,0 4,-2.5 0,-2.5" style="fill:none;stroke:rgb(245,245,247)"/>
<polygon points="0,-2.5 4,-2.5 2.5,-3.46 -1.5,-3.46" style="fill:none;stroke:rgb(245,245,247)"/>
<polygon points="4,0 2.5,-0.96 2.5,-3.46 4,-2.5" style="fill:none;stroke:rgb(245,245,247)"/>
<circle cx="0" cy="0" r="0.03" style="fill:rgb(255,168,96);stroke:none"/>
<text x="0.354" y="0.354" text-anchor="middle" dominant-baseline="central" style="font-family:sans-serif;font-size:0.3;font-size:0.3;fill:rgb(255,168,96)">corner</text>
<line x1="0" y1="0" x2="4" y2="0" style="fill:none;stroke:rgb(255,168,96);stroke-width:0.2"/>
<text x="2" y="0" text-anchor="middle" dominant-baseline="central" style="font-family:sans-serif;font-size:0.3;fill:rgb(255,168,96);font-size:0.3">dx</text>
<line x1="0" y1="0" x2="0" y2="-2.5" style="fill:none;stroke:rgb(255,168,96);stroke-width:0.2"/>
<text x="0" y="-1.25" text-anchor="middle" dominant-baseline="central" style="font-family:sans-serif;font-size:0.3;fill:rgb(255,168,96);font-size:0.3">dz</text>
<line x1="4" y1="0" x2="2.5" y2="-0.96" style="fill:none;stroke:rgb(255,168,96);stroke-width:0.2"/>
<text x="3.25" y="-0.48" text-anchor="middle" dominant-baseline="central" style="font-family:sans-serif;font-size:0.3;fill:rgb(255,168,96);font-size:0.3">dy</text>
</g>
</svg>
