<svg xmlns="http://www.w3.org/2000/svg" width="800" height="600" viewBox="-1 -2.2 4.5 3.2">
<defs>
<marker id="ah-start-0" markerUnits="userSpaceOnUse" markerWidth="0.4" markerHeight="0.28" refX="0" refY="0.14" orient="auto"><path d="M0.4,0 L0,0.14 L0.4,0.28 Z" fill="rgb(255,168,96)" stroke="none"/></marker>
<marker id="ah-end-1" markerUnits="userSpaceOnUse" markerWidth="0.4" markerHeight="0.28" refX="0.4" refY="0.14" orient="auto"><path d="M0,0 L0.4,0.14 L0,0.28 Z" fill="rgb(255,168,96)" stroke="none"/></marker>
</defs>
<g stroke-width="0.006">
<path d="M 3,0 C 3,-0.056 2.995,-0.111 2.986,-0.167 C 2.976,-0.222 2.961,-0.277 2.942,-0.332 C 2.923,-0.386 2.899,-0.44 2.871,-0.493 C 2.842,-0.547 2.809,-0.599 2.772,-0.651 C 2.734,-0.702 2.692,-0.752 2.646,-0.801 C 2.6,-0.85 2.549,-0.898 2.494,-0.944 C 2.44,-0.991 2.381,-1.036 2.319,-1.078 C 2.257,-1.121 2.191,-1.163 2.121,-1.202 C 2.052,-1.241 1.979,-1.279 1.903,-1.314 C 1.827,-1.349 1.748,-1.383 1.667,-1.413 C 1.585,-1.444 1.501,-1.473 1.414,-1.499 C 1.328,-1.525 1.239,-1.549 1.148,-1.571 C 1.057,-1.592 0.965,-1.611 0.871,-1.627 C 0.777,-1.643 0.681,-1.656 0.585,-1.667 C 0.489,-1.678 0.392,-1.686 0.294,-1.692 C 0.197,-1.697 0.098,-1.7 0,-1.7 C -0.098,-1.7 -0.197,-1.697 -0.294,-1.692 C -0.392,-1.686 -0.489,-1.678 -0.585,-1.667 C -0.681,-1.656 -0.777,-1.643 -0.871,-1.627 C -0.965,-1.611 -1.057,-1.592 -1.148,-1.571 C -1.239,-1.549 -1.328,-1.525 -1.414,-1.499 C -1.501,-1.473 -1.585,-1.444 -1.667,-1.413 C -1.748,-1.383 -1.827,-1.349 -1.903,-1.314 C -1.979,-1.279 -2.052,-1.241 -2.121,-1.202 C -2.191,-1.163 -2.257,-1.121 -2.319,-1.078 C -2.381,-1.036 -2.44,-0.991 -2.494,-0.944 C -2.549,-0.898 -2.6,-0.85 -2.646,-0.801 C -2.692,-0.752 -2.734,-0.702 -2.772,-0.651 C -2.809,-0.599 -2.842,-0.547 -2.871,-0.493 C -2.899,-0.44 -2.923,-0.386 -2.942,-0.332 C -2.961,-0.277 -2.976,-0.222 -2.986,-0.167 C -2.995,-0.111 -3,-0.056 -3,0 C -3,0.056 -2.995,0.111 -2.986,0.167 C -2.976,0.222 -2.961,0.277 -2.942,0.332 C -2.923,0.386 -2.899,0.44 -2.871,0.493 C -2.842,0.547 -2.809,0.599 -2.772,0.651 C -2.734,0.702 -2.692,0.752 -2.646,0.801 C -2.6,0.85 -2.549,0.898 -2.494,0.944 C -2.44,0.991 -2.381,1.036 -2.319,1.078 C -2.257,1.121 -2.191,1.163 -2.121,1.202 C -2.052,1.241 -1.979,1.279 -1.903,1.314 C -1.827,1.349 -1.748,1.383 -1.667,1.413 C -1.585,1.444 -1.501,1.473 -1.414,1.499 C -1.328,1.525 -1.239,1.549 -1.148,1.571 C -1.057,1.592 -0.965,1.611 -0.871,1.627 C -0.777,1.643 -0.681,1.656 -0.585,1.667 C -0.489,1.678 -0.392,1.686 -0.294,1.692 C -0.197,1.697 -0.098,1.7 0,1.7 C 0.098,1.7 0.197,1.697 0.294,1.692 C 0.392,1.686 0.489,1.678 0.585,1.667 C 0.681,1.656 0.777,1.643 0.871,1.627 C 0.965,1.611 1.057,1.592 1.148,1.571 C 1.239,1.549 1.328,1.525 1.414,1.499 C 1.501,1.473 1.585,1.444 1.667,1.413 C 1.748,1.383 1.827,1.349 1.903,1.314 C 1.979,1.279 2.052,1.241 2.121,1.202 C 2.191,1.163 2.257,1.121 2.319,1.078 C 2.381,1.036 2.44,0.991 2.494,0.944 C 2.549,0.898 2.6,0.85 2.646,0.801 C 2.692,0.752 2.734,0.702 2.772,0.651 C 2.809,0.599 2.842,0.547 2.871,0.493 C 2.899,0.44 2.923,0.386 2.942,0.332 C 2.961,0.277 2.976,0.222 2.986,0.167 C 2.995,0.111 3,0.056 3,0 Z" style="fill:rgb(245,245,247);stroke:none"/>
<circle cx="0" cy="0" r="0.03" style="fill:rgb(255,168,96);stroke:none"/>
<text x="0.318" y="0.318" text-anchor="start" dominant-baseline="hanging" style="font-family:Helvetica,Arial,sans-serif;font-size:0.42;fill:rgb(255,168,96)">center</text>
<line x1="0" y1="0" x2="3" y2="0" style="fill:none;stroke:rgb(255,168,96);stroke-width:1.5;vector-effect:non-scaling-stroke" marker-start="url(#ah-start-0)" marker-end="url(#ah-end-1)"/>
<text x="1.5" y="0.45" text-anchor="middle" dominant-baseline="hanging" style="font-family:Helvetica,Arial,sans-serif;font-size:0.42;fill:rgb(255,168,96)">radius_x</text>
<line x1="0" y1="0" x2="0" y2="-1.7" style="fill:none;stroke:rgb(255,168,96);stroke-width:1.5;vector-effect:non-scaling-stroke" marker-start="url(#ah-start-0)" marker-end="url(#ah-end-1)"/>
<text x="0.45" y="-0.85" text-anchor="start" dominant-baseline="middle" style="font-family:Helvetica,Arial,sans-serif;font-size:0.42;fill:rgb(255,168,96)">radius_y</text>
</g>
</svg>
