<svg xmlns="http://www.w3.org/2000/svg" width="800" height="600" viewBox="-0.56 -2.56 9.12 3.62">
<defs>
<marker id="arrowhead-end" markerWidth="10" markerHeight="7" refX="10" refY="3.5" orient="auto"><polygon points="0 0, 10 3.5, 0 7" fill="rgb(211,211,211)"/></marker>
<marker id="arrowhead-start" markerWidth="10" markerHeight="7" refX="0" refY="3.5" orient="auto"><polygon points="10 0, 0 3.5, 10 7" fill="rgb(211,211,211)"/></marker>
</defs>
<g stroke-width="0.011">
<path d="M 0,0 C 0.333,-0.333 1.333,-2.083 2,-2 C 2.667,-1.917 3.333,0.417 4,0.5 C 4.667,0.583 5.333,-1.417 6,-1.5 C 6.667,-1.583 7.667,-0.25 8,0" style="fill:none;stroke:rgb(245,245,247)"/>
<circle cx="0" cy="0" r="0.06" style="fill:rgb(255,168,96);stroke:none;stroke:none"/>
<text x="0.15" y="-0.25" style="font-family:sans-serif;font-size:0.3;fill:rgb(255,168,96);stroke:none">p1</text>
<circle cx="2" cy="-2" r="0.06" style="fill:rgb(255,168,96);stroke:none;stroke:none"/>
<text x="2.15" y="-2.25" style="font-family:sans-serif;font-size:0.3;fill:rgb(255,168,96);stroke:none">p2</text>
<circle cx="4" cy="0.5" r="0.06" style="fill:rgb(255,168,96);stroke:none;stroke:none"/>
<text x="4.15" y="0.25" style="font-family:sans-serif;font-size:0.3;fill:rgb(255,168,96);stroke:none">p3</text>
<circle cx="6" cy="-1.5" r="0.06" style="fill:rgb(255,168,96);stroke:none;stroke:none"/>
<text x="6.15" y="-1.75" style="font-family:sans-serif;font-size:0.3;fill:rgb(255,168,96);stroke:none">p4</text>
<circle cx="8" cy="0" r="0.06" style="fill:rgb(255,168,96);stroke:none;stroke:none"/>
<text x="8.15" y="-0.25" style="font-family:sans-serif;font-size:0.3;fill:rgb(255,168,96);stroke:none">p5</text>
</g>
</svg>
