<svg xmlns="http://www.w3.org/2000/svg" width="800" height="600" viewBox="-2.5 -2.5 5 5">
<defs>
<marker id="arrowhead-end" markerWidth="10" markerHeight="7" refX="10" refY="3.5" orient="auto"><polygon points="0 0, 10 3.5, 0 7" fill="rgb(211,211,211)"/></marker>
<marker id="arrowhead-start" markerWidth="10" markerHeight="7" refX="0" refY="3.5" orient="auto"><polygon points="10 0, 0 3.5, 10 7" fill="rgb(211,211,211)"/></marker>
</defs>
<g stroke-width="0.006">
<path d="M 1.732,-1 A 2,2 0 0,0 -1.732,-1" style="fill:none;stroke:rgb(245,245,247)"/>
<circle cx="0" cy="0" r="0.06" style="fill:rgb(255,168,96);stroke:none;stroke:none"/>
<text x="0.15" y="-0.2" style="font-family:sans-serif;font-size:0.3;fill:rgb(255,168,96);stroke:none">c</text>
<polyline points="0,0 1.732,-1" style="fill:none;fill:none;stroke:rgb(255,168,96);stroke-width:0.04"/>
<polyline points="-0.06,-0.104 0.06,0.104" style="fill:none;fill:none;stroke:rgb(255,168,96);stroke-width:0.04"/>
<polyline points="1.672,-1.104 1.792,-0.896" style="fill:none;fill:none;stroke:rgb(255,168,96);stroke-width:0.04"/>
<text x="0.766" y="-0.673" style="font-family:sans-serif;font-size:0.3;fill:rgb(255,168,96);stroke:none">r</text>
<path d="M 0.8,0 A 0.8,0.8 0 0,0 0.693,-0.4" style="fill:none;fill:none;stroke:rgb(255,168,96);stroke-width:0.04"/>
<polyline points="0,0 2,0" style="fill:none;fill:none;stroke:rgb(255,168,96);stroke-width:0.04"/>
<polyline points="0,0 1.732,-1" style="fill:none;fill:none;stroke:rgb(255,168,96);stroke-width:0.04"/>
<text x="1.063" y="-0.285" style="font-family:sans-serif;font-size:0.28;fill:rgb(255,168,96);stroke:none">α</text>
<path d="M 0.693,-0.4 A 0.8,0.8 0 0,0 -0.693,-0.4" style="fill:none;fill:none;stroke:rgb(255,168,96);stroke-width:0.04"/>
<polyline points="0,0 1.732,-1" style="fill:none;fill:none;stroke:rgb(255,168,96);stroke-width:0.04"/>
<polyline points="0,0 -1.732,-1" style="fill:none;fill:none;stroke:rgb(255,168,96);stroke-width:0.04"/>
<text x="0" y="-1.1" style="font-family:sans-serif;font-size:0.28;fill:rgb(255,168,96);stroke:none">Δα</text>
</g>
</svg>
