<svg xmlns="http://www.w3.org/2000/svg" width="800" height="600" viewBox="-2.5 -2.5 5 5">
<defs>
<marker id="arrowhead-end" markerWidth="10" markerHeight="7" refX="10" refY="3.5" orient="auto"><polygon points="0 0, 10 3.5, 0 7" fill="rgb(211,211,211)"/></marker>
<marker id="arrowhead-start" markerWidth="10" markerHeight="7" refX="0" refY="3.5" orient="auto"><polygon points="10 0, 0 3.5, 10 7" fill="rgb(211,211,211)"/></marker>
</defs>
<g stroke-width="0.006">
<path d="M 1.732,-1 A 2,2 0 0,0 -1.732,-1" style="fill:none;stroke:rgb(245,245,247)"/>
<circle cx="0" cy="0" r="0.03" style="fill:rgb(255,168,96);stroke:none"/>
<text x="0.354" y="0.354" text-anchor="middle" dominant-baseline="central" style="font-family:sans-serif;font-size:0.3;font-size:0.3;fill:rgb(255,168,96)">c</text>
<line x1="0" y1="0" x2="0.4" y2="0" style="fill:none;stroke:rgb(255,168,96);stroke-width:0.2"/>
<path d="M 0.4,0 A 0.4,0.4 0 0,0 0.346,-0.2" style="fill:none;stroke:rgb(255,168,96);stroke-width:0.2"/>
<text x="0.386" y="-0.104" text-anchor="middle" dominant-baseline="central" style="font-family:sans-serif;font-size:0.3;fill:rgb(255,168,96);font-size:0.3">α</text>
<line x1="0" y1="0" x2="0.346" y2="-0.2" style="fill:none;stroke:rgb(255,168,96);stroke-width:0.2"/>
<line x1="0" y1="0" x2="-1.732" y2="-1" style="fill:none;stroke:rgb(255,168,96);stroke-width:0.2"/>
<path d="M 0.346,-0.2 A 0.4,0.4 0 0,0 -0.346,-0.2" style="fill:none;stroke:rgb(255,168,96);stroke-width:0.2"/>
<text x="0" y="-0.4" text-anchor="middle" dominant-baseline="central" style="font-family:sans-serif;font-size:0.3;fill:rgb(255,168,96);font-size:0.3">Δα</text>
<text x="-0.866" y="-0.5" text-anchor="middle" dominant-baseline="central" style="font-family:sans-serif;font-size:0.3;fill:rgb(255,168,96);font-size:0.3">r</text>
</g>
</svg>
