<svg xmlns="http://www.w3.org/2000/svg" width="800" height="600" viewBox="-2.5 -2.5 5 5">
<defs>
<marker id="arrowhead-end" markerWidth="10" markerHeight="7" refX="10" refY="3.5" orient="auto"><polygon points="0 0, 10 3.5, 0 7" fill="rgb(211,211,211)"/></marker>
<marker id="arrowhead-start" markerWidth="10" markerHeight="7" refX="0" refY="3.5" orient="auto"><polygon points="10 0, 0 3.5, 10 7" fill="rgb(211,211,211)"/></marker>
</defs>
<g stroke-width="0.006">
<polygon points="1.848,-0.765 0.261,-1.983 -1.587,-1.218 -1.848,0.765 -0.261,1.983 1.587,1.218" style="fill:none;stroke:rgb(245,245,247)"/>
<circle cx="0" cy="0" r="0.06" style="fill:rgb(255,168,96);stroke:none;stroke:none"/>
<text x="-1.4" y="-0.2" style="font-family:sans-serif;font-size:0.3;fill:rgb(255,168,96);stroke:none">center</text>
<polyline points="0,0 1.848,-0.765" style="fill:none;fill:none;stroke:rgb(255,168,96);stroke-width:0.04"/>
<polyline points="-0.046,-0.111 0.046,0.111" style="fill:none;fill:none;stroke:rgb(255,168,96);stroke-width:0.04"/>
<polyline points="1.802,-0.876 1.894,-0.655" style="fill:none;fill:none;stroke:rgb(255,168,96);stroke-width:0.04"/>
<text x="0.847" y="-0.567" style="font-family:sans-serif;font-size:0.3;fill:rgb(255,168,96);stroke:none">radius</text>
<path d="M 0.8,0 A 0.8,0.8 0 0,0 0.739,-0.306" style="fill:none;fill:none;stroke:rgb(255,168,96);stroke-width:0.04"/>
<polyline points="0,0 2,0" style="fill:none;fill:none;stroke:rgb(255,168,96);stroke-width:0.04"/>
<polyline points="0,0 1.848,-0.765" style="fill:none;fill:none;stroke:rgb(255,168,96);stroke-width:0.04"/>
<text x="1.079" y="-0.215" style="font-family:sans-serif;font-size:0.28;fill:rgb(255,168,96);stroke:none">ϕ</text>
<text x="-2.5" y="1.4" style="font-family:sans-serif;font-size:0.3;fill:rgb(255,168,96);stroke:none">n = 6</text>
</g>
</svg>
