<svg xmlns="http://www.w3.org/2000/svg" width="800" height="600" viewBox="-2 -4.02 6.5 4.58">
<defs>
<marker id="arrowhead-end" markerWidth="10" markerHeight="7" refX="10" refY="3.5" orient="auto"><polygon points="0 0, 10 3.5, 0 7" fill="rgb(211,211,211)"/></marker>
<marker id="arrowhead-start" markerWidth="10" markerHeight="7" refX="0" refY="3.5" orient="auto"><polygon points="10 0, 0 3.5, 10 7" fill="rgb(211,211,211)"/></marker>
</defs>
<g stroke-width="0.008">
<polygon points="0,0 4,0 4,-2.5 0,-2.5" style="fill:none;stroke:rgb(245,245,247)"/>
<polygon points="0,-2.5 4,-2.5 2.5,-3.46 -1.5,-3.46" style="fill:none;stroke:rgb(245,245,247)"/>
<polygon points="4,0 2.5,-0.96 2.5,-3.46 4,-2.5" style="fill:none;stroke:rgb(245,245,247)"/>
<polyline points="0,0 -1.5,-0.96" style="fill:none;fill:none;stroke:rgb(255,168,96);stroke-width:0.04"/>
<polyline points="-1.5,-0.96 2.5,-0.96" style="fill:none;fill:none;stroke:rgb(255,168,96);stroke-width:0.04"/>
<polyline points="-1.5,-0.96 -1.5,-3.46" style="fill:none;fill:none;stroke:rgb(255,168,96);stroke-width:0.04"/>
<circle cx="0" cy="0" r="0.06" style="fill:rgb(255,168,96);stroke:none;stroke:none"/>
<text x="-0.8" y="0.4" style="font-family:sans-serif;font-size:0.3;fill:rgb(255,168,96);stroke:none">p1</text>
<circle cx="2.5" cy="-3.46" r="0.06" style="fill:rgb(255,168,96);stroke:none;stroke:none"/>
<text x="2.7" y="-3.66" style="font-family:sans-serif;font-size:0.3;fill:rgb(255,168,96);stroke:none">p2</text>
</g>
</svg>
