<svg xmlns="http://www.w3.org/2000/svg" width="800" height="600" viewBox="-2.3 -6.3 5.52 8.6">
<defs>
<marker id="arrowhead-end" markerWidth="10" markerHeight="7" refX="10" refY="3.5" orient="auto"><polygon points="0 0, 10 3.5, 0 7" fill="rgb(211,211,211)"/></marker>
<marker id="arrowhead-start" markerWidth="10" markerHeight="7" refX="0" refY="3.5" orient="auto"><polygon points="10 0, 0 3.5, 10 7" fill="rgb(211,211,211)"/></marker>
</defs>
<g stroke-width="0.007">
<polyline points="-1.8,0 -1.8,-4" style="fill:none;stroke:rgb(245,245,247)"/>
<polyline points="1.8,0 1.8,-4" style="fill:none;stroke:rgb(245,245,247)"/>
<path d="M 1.8,-4 A 1.8,1.8 0 0,0 -1.8,-4" style="fill:none;stroke:rgb(245,245,247)"/>
<path d="M -1.8,-4 A 1.8,1.8 0 0,0 1.8,-4" style="fill:none;stroke:rgb(245,245,247)"/>
<path d="M 1.8,0 A 1.8,1.8 0 0,0 -1.8,0" style="fill:none;stroke:rgb(245,245,247)"/>
<polyline points="-1.8,0 1.8,0" style="fill:none;fill:none;stroke:rgb(255,168,96);stroke-width:0.04"/>
<circle cx="0" cy="0" r="0.06" style="fill:rgb(255,168,96);stroke:none;stroke:none"/>
<text x="0.15" y="-0.25" style="font-family:sans-serif;font-size:0.3;fill:rgb(255,168,96);stroke:none">p</text>
<polyline points="0,0 1.8,0" style="fill:none;fill:none;stroke:rgb(255,168,96);stroke-width:0.04"/>
<polyline points="0,-0.12 0,0.12" style="fill:none;fill:none;stroke:rgb(255,168,96);stroke-width:0.04"/>
<polyline points="1.8,-0.12 1.8,0.12" style="fill:none;fill:none;stroke:rgb(255,168,96);stroke-width:0.04"/>
<text x="0.9" y="-0.2" style="font-family:sans-serif;font-size:0.3;fill:rgb(255,168,96);stroke:none">r</text>
<polyline points="2.6,0 2.6,-4" style="fill:none;fill:none;stroke:rgb(255,168,96);stroke-width:0.04"/>
<polyline points="2.48,0 2.72,0" style="fill:none;fill:none;stroke:rgb(255,168,96);stroke-width:0.04"/>
<polyline points="2.48,-4 2.72,-4" style="fill:none;fill:none;stroke:rgb(255,168,96);stroke-width:0.04"/>
<text x="2.4" y="-2" style="font-family:sans-serif;font-size:0.3;fill:rgb(255,168,96);stroke:none">h</text>
</g>
</svg>
