<svg xmlns="http://www.w3.org/2000/svg" width="800" height="600" viewBox="-0.5 -7.5 13.5 9">
<defs>
</defs>
<g stroke-width="0.017">
<polygon points="0,0 5,0 5,-4 0,-4" style="fill:rgba(255,255,255,0.10);stroke:none;stroke:none"/>
<polygon points="0,0 5,0 5,-4 0,-4 0,0" style="fill:none;fill:none;stroke:rgb(245,245,247);stroke-width:0.05"/>
<text x="1.828" y="-1.84" style="font-family:sans-serif;font-size:0.32;fill:rgb(245,245,247);stroke:none">:living</text>
<polygon points="5,0 8,0 8,-4 5,-4" style="fill:rgba(255,255,255,0.10);stroke:none;stroke:none"/>
<polygon points="5,0 8,0 8,-4 5,-4 5,0" style="fill:none;fill:none;stroke:rgb(245,245,247);stroke-width:0.05"/>
<text x="5.732" y="-1.84" style="font-family:sans-serif;font-size:0.32;fill:rgb(245,245,247);stroke:none">:kitchen</text>
<polygon points="0,-4 4,-4 4,-7 0,-7" style="fill:rgba(255,255,255,0.10);stroke:none;stroke:none"/>
<polygon points="0,-4 4,-4 4,-7 0,-7 0,-4" style="fill:none;fill:none;stroke:rgb(245,245,247);stroke-width:0.05"/>
<text x="1.616" y="-5.34" style="font-family:sans-serif;font-size:0.32;fill:rgb(245,245,247);stroke:none">:bed</text>
<polygon points="4,-4 8,-4 8,-7 4,-7" style="fill:rgba(255,255,255,0.10);stroke:none;stroke:none"/>
<polygon points="4,-4 8,-4 8,-7 4,-7 4,-4" style="fill:none;fill:none;stroke:rgb(245,245,247);stroke-width:0.05"/>
<text x="5.52" y="-5.34" style="font-family:sans-serif;font-size:0.32;fill:rgb(245,245,247);stroke:none">:bath</text>
<rect x="4.92" y="-3.9" width="0.16" height="3.8" style="fill:rgb(245,245,247);stroke:none"/>
<rect x="0.1" y="-4.08" width="3.8" height="0.16" style="fill:rgb(245,245,247);stroke:none"/>
<rect x="3.92" y="-6.9" width="0.16" height="2.8" style="fill:rgb(245,245,247);stroke:none"/>
<rect x="5.1" y="-4.08" width="2.8" height="0.16" style="fill:rgb(245,245,247);stroke:none"/>
<text x="0" y="0.9" style="font-family:sans-serif;font-size:0.3;fill:rgb(245,245,247)">Interior adjacencies (shared walls) highlighted.</text>
</g>
</svg>
