<svg xmlns="http://www.w3.org/2000/svg" width="800" height="600" viewBox="-0.5 -4.5 10 5.1">
<defs>
<marker id="arrowhead-end" markerWidth="10" markerHeight="7" refX="10" refY="3.5" orient="auto"><polygon points="0 0, 10 3.5, 0 7" fill="rgb(211,211,211)"/></marker>
<marker id="arrowhead-start" markerWidth="10" markerHeight="7" refX="0" refY="3.5" orient="auto"><polygon points="10 0, 0 3.5, 10 7" fill="rgb(211,211,211)"/></marker>
</defs>
<g stroke-width="0.012">
<polygon points="0,0 5,0 5,-4 0,-4" style="fill:rgb(235,238,244);stroke:none;stroke:none"/>
<polygon points="0,0 5,0 5,-4 0,-4 0,0" style="fill:none;fill:none;stroke:rgb(55,70,95);stroke-width:0.04"/>
<text x="1.828" y="-1.84" style="font-family:sans-serif;font-size:0.32;fill:rgb(30,30,30);stroke:none">:living</text>
<polygon points="5,0 9,0 9,-4 5,-4" style="fill:rgb(235,238,244);stroke:none;stroke:none"/>
<polygon points="5,0 9,0 9,-4 5,-4 5,0" style="fill:none;fill:none;stroke:rgb(55,70,95);stroke-width:0.04"/>
<text x="6.232" y="-1.84" style="font-family:sans-serif;font-size:0.32;fill:rgb(30,30,30);stroke:none">:kitchen</text>
<rect x="0.5" y="-0.1" width="0.8" height="0.2" style="fill:rgb(90,150,90);stroke:none;stroke:none"/>
<rect x="2" y="-0.1" width="0.8" height="0.2" style="fill:rgb(90,150,90);stroke:none;stroke:none"/>
<rect x="3.5" y="-0.1" width="0.8" height="0.2" style="fill:rgb(90,150,90);stroke:none;stroke:none"/>
<text x="0" y="1.1" style="font-family:sans-serif;font-size:0.3;fill:rgb(30,30,30);stroke:none">no_windows(desc, :kitchen)</text>
</g>
</svg>
