<svg xmlns="http://www.w3.org/2000/svg" width="800" height="600" viewBox="-0.5 -7.5 9 8">
<defs>
<marker id="arrowhead-end" markerWidth="10" markerHeight="7" refX="10" refY="3.5" orient="auto"><polygon points="0 0, 10 3.5, 0 7" fill="rgb(211,211,211)"/></marker>
<marker id="arrowhead-start" markerWidth="10" markerHeight="7" refX="0" refY="3.5" orient="auto"><polygon points="10 0, 0 3.5, 10 7" fill="rgb(211,211,211)"/></marker>
</defs>
<g stroke-width="0.011">
<polygon points="0,0 5,0 5,-4 0,-4" style="fill:rgb(235,238,244);stroke:none;stroke:none"/>
<polygon points="0,0 5,0 5,-4 0,-4 0,0" style="fill:none;fill:none;stroke:rgb(55,70,95);stroke-width:0.04"/>
<text x="1.924" y="-1.84" style="font-family:sans-serif;font-size:0.32;fill:rgb(30,30,30);stroke:none">living</text>
<polygon points="5,0 8,0 8,-4 5,-4" style="fill:rgb(235,238,244);stroke:none;stroke:none"/>
<polygon points="5,0 8,0 8,-4 5,-4 5,0" style="fill:none;fill:none;stroke:rgb(55,70,95);stroke-width:0.04"/>
<text x="5.828" y="-1.84" style="font-family:sans-serif;font-size:0.32;fill:rgb(30,30,30);stroke:none">kitchen</text>
<polygon points="0,-4 4,-4 4,-7 0,-7" style="fill:rgb(235,238,244);stroke:none;stroke:none"/>
<polygon points="0,-4 4,-4 4,-7 0,-7 0,-4" style="fill:none;fill:none;stroke:rgb(55,70,95);stroke-width:0.04"/>
<text x="1.712" y="-5.34" style="font-family:sans-serif;font-size:0.32;fill:rgb(30,30,30);stroke:none">bed</text>
<polygon points="4,-4 8,-4 8,-7 4,-7" style="fill:rgb(235,238,244);stroke:none;stroke:none"/>
<polygon points="4,-4 8,-4 8,-7 4,-7 4,-4" style="fill:none;fill:none;stroke:rgb(55,70,95);stroke-width:0.04"/>
<text x="5.616" y="-5.34" style="font-family:sans-serif;font-size:0.32;fill:rgb(30,30,30);stroke:none">bath</text>
<text x="0" y="1" style="font-family:sans-serif;font-size:0.45">((living | kitchen) / (bed | bath))</text>
</g>
</svg>
