<svg xmlns="http://www.w3.org/2000/svg" width="800" height="600" viewBox="-0.5 -4.5 21 6.117">
<defs>
</defs>
<g stroke-width="0.026">
<polygon points="0,0 5,0 5,-4 0,-4" style="fill:rgba(255,255,255,0.10);stroke:none;stroke:none"/>
<polygon points="0,0 5,0 5,-4 0,-4 0,0" style="fill:none;fill:none;stroke:rgb(245,245,247);stroke-width:0.05"/>
<text x="2.23" y="-1.85" style="font-family:sans-serif;font-size:0.3;fill:rgb(245,245,247);stroke:none">u_1</text>
<polygon points="5,0 10,0 10,-4 5,-4" style="fill:rgba(255,255,255,0.10);stroke:none;stroke:none"/>
<polygon points="5,0 10,0 10,-4 5,-4 5,0" style="fill:none;fill:none;stroke:rgb(245,245,247);stroke-width:0.05"/>
<text x="7.23" y="-1.85" style="font-family:sans-serif;font-size:0.3;fill:rgb(245,245,247);stroke:none">u_2</text>
<polygon points="10,0 15,0 15,-4 10,-4" style="fill:rgba(255,255,255,0.10);stroke:none;stroke:none"/>
<polygon points="10,0 15,0 15,-4 10,-4 10,0" style="fill:none;fill:none;stroke:rgb(245,245,247);stroke-width:0.05"/>
<text x="12.23" y="-1.85" style="font-family:sans-serif;font-size:0.3;fill:rgb(245,245,247);stroke:none">u_3</text>
<polygon points="15,0 20,0 20,-4 15,-4" style="fill:rgba(255,255,255,0.10);stroke:none;stroke:none"/>
<polygon points="15,0 20,0 20,-4 15,-4 15,0" style="fill:none;fill:none;stroke:rgb(245,245,247);stroke-width:0.05"/>
<text x="17.23" y="-1.85" style="font-family:sans-serif;font-size:0.3;fill:rgb(245,245,247);stroke:none">u_4</text>
<text x="0" y="1" style="font-family:sans-serif;font-size:0.35;fill:rgb(245,245,247);stroke:none">repeat_unit(u, 4; axis=:x)</text>
</g>
</svg>
