<svg xmlns="http://www.w3.org/2000/svg" width="800" height="600" viewBox="-0.5 -7.5 13.975 9.15">
<defs>
</defs>
<g stroke-width="0.017">
<polygon points="0,0 5,0 5,-4 0,-4" style="fill:rgba(255,255,255,0.10);stroke:none;stroke:none"/>
<polygon points="0,0 5,0 5,-4 0,-4 0,0" style="fill:none;fill:none;stroke:rgb(245,245,247);stroke-width:0.05"/>
<text x="1.924" y="-1.84" style="font-family:sans-serif;font-size:0.32;fill:rgb(245,245,247);stroke:none">living</text>
<polygon points="5,0 8,0 8,-4 5,-4" style="fill:rgba(255,255,255,0.10);stroke:none;stroke:none"/>
<polygon points="5,0 8,0 8,-4 5,-4 5,0" style="fill:none;fill:none;stroke:rgb(245,245,247);stroke-width:0.05"/>
<text x="5.828" y="-1.84" style="font-family:sans-serif;font-size:0.32;fill:rgb(245,245,247);stroke:none">kitchen</text>
<polygon points="0,-4 4,-4 4,-7 0,-7" style="fill:rgba(255,255,255,0.10);stroke:none;stroke:none"/>
<polygon points="0,-4 4,-4 4,-7 0,-7 0,-4" style="fill:none;fill:none;stroke:rgb(245,245,247);stroke-width:0.05"/>
<text x="1.712" y="-5.34" style="font-family:sans-serif;font-size:0.32;fill:rgb(245,245,247);stroke:none">bed</text>
<polygon points="4,-4 8,-4 8,-7 4,-7" style="fill:rgba(255,255,255,0.10);stroke:none;stroke:none"/>
<polygon points="4,-4 8,-4 8,-7 4,-7 4,-4" style="fill:none;fill:none;stroke:rgb(245,245,247);stroke-width:0.05"/>
<text x="5.616" y="-5.34" style="font-family:sans-serif;font-size:0.32;fill:rgb(245,245,247);stroke:none">bath</text>
<text x="0" y="1" style="font-family:sans-serif;font-size:0.45;fill:rgb(245,245,247)">((living | kitchen) / (bed | bath))</text>
</g>
</svg>
