<svg xmlns="http://www.w3.org/2000/svg" width="800" height="600" viewBox="-0.5 -4.75 7 5.25">
<defs>
<marker id="arrowhead-end" markerWidth="10" markerHeight="7" refX="10" refY="3.5" orient="auto"><polygon points="0 0, 10 3.5, 0 7" fill="rgb(211,211,211)"/></marker>
<marker id="arrowhead-start" markerWidth="10" markerHeight="7" refX="0" refY="3.5" orient="auto"><polygon points="10 0, 0 3.5, 10 7" fill="rgb(211,211,211)"/></marker>
</defs>
<g stroke-width="0.009">
<polygon points="0,0 4,0 4,-0.2 0,-0.2" style="fill:rgba(255,255,255,0.10);stroke:none;stroke:none"/>
<polygon points="0,0 4,0 4,-0.2 0,-0.2 0,0" style="fill:none;fill:none;stroke:rgb(245,245,247);stroke-width:0.05"/>
<text x="2" y="0.06" style="font-family:sans-serif;font-size:0.32;fill:rgb(245,245,247);stroke:none"></text>
<text x="0" y="0.5" style="font-family:sans-serif;font-size:0.25;fill:rgb(245,245,247)">wall(p1, p2, family)</text>
<polygon points="0,-2 6,-2 6,-2.3 0,-2.3" style="fill:rgba(255,255,255,0.10);stroke:none;stroke:none"/>
<polygon points="0,-2 6,-2 6,-2.3 0,-2.3 0,-2" style="fill:none;fill:none;stroke:rgb(245,245,247);stroke-width:0.05"/>
<text x="3" y="-1.99" style="font-family:sans-serif;font-size:0.32;fill:rgb(245,245,247);stroke:none"></text>
<text x="0" y="-1.5" style="font-family:sans-serif;font-size:0.25;fill:rgb(245,245,247)">wall(p1, p2, family; width=0.3)</text>
<polygon points="0,-4 5,-4 5,-4.25 0,-4.25" style="fill:rgba(255,255,255,0.10);stroke:none;stroke:none"/>
<polygon points="0,-4 5,-4 5,-4.25 0,-4.25 0,-4" style="fill:none;fill:none;stroke:rgb(245,245,247);stroke-width:0.05"/>
<text x="2.5" y="-3.965" style="font-family:sans-serif;font-size:0.32;fill:rgb(245,245,247);stroke:none"></text>
<text x="0" y="-3.5" style="font-family:sans-serif;font-size:0.25;fill:rgb(245,245,247)">wall(p1, p2, family_tall; height=3.5)</text>
</g>
</svg>
