<svg xmlns="http://www.w3.org/2000/svg" width="800" height="600" viewBox="-0.5 -3.5 14.6 5">
<defs>
</defs>
<g stroke-width="0.018">
<polygon points="0,0 3,0 3,-3 0,-3" style="fill:rgba(255,255,255,0.10);stroke:none;stroke:none"/>
<polygon points="0,0 3,0 3,-3 0,-3 0,0" style="fill:none;fill:none;stroke:rgb(245,245,247);stroke-width:0.05"/>
<text x="0.924" y="-1.34" style="font-family:sans-serif;font-size:0.32;fill:rgb(245,245,247);stroke:none">room a</text>
<polyline points="3,0 3.2,0" style="fill:none;stroke:rgb(245,245,247)"/>
<polyline points="3,-3 3.2,-3" style="fill:none;stroke:rgb(245,245,247)"/>
<polyline points="3.4,0 3.6,0" style="fill:none;stroke:rgb(245,245,247)"/>
<polyline points="3.4,-3 3.6,-3" style="fill:none;stroke:rgb(245,245,247)"/>
<polyline points="3.8,0 4,0" style="fill:none;stroke:rgb(245,245,247)"/>
<polyline points="3.8,-3 4,-3" style="fill:none;stroke:rgb(245,245,247)"/>
<polyline points="4.2,0 4.4,0" style="fill:none;stroke:rgb(245,245,247)"/>
<polyline points="4.2,-3 4.4,-3" style="fill:none;stroke:rgb(245,245,247)"/>
<polyline points="3,0 3,-0.2" style="fill:none;stroke:rgb(245,245,247)"/>
<polyline points="4.5,0 4.5,-0.2" style="fill:none;stroke:rgb(245,245,247)"/>
<polyline points="3,-0.4 3,-0.6" style="fill:none;stroke:rgb(245,245,247)"/>
<polyline points="4.5,-0.4 4.5,-0.6" style="fill:none;stroke:rgb(245,245,247)"/>
<polyline points="3,-0.8 3,-1" style="fill:none;stroke:rgb(245,245,247)"/>
<polyline points="4.5,-0.8 4.5,-1" style="fill:none;stroke:rgb(245,245,247)"/>
<polyline points="3,-1.2 3,-1.4" style="fill:none;stroke:rgb(245,245,247)"/>
<polyline points="4.5,-1.2 4.5,-1.4" style="fill:none;stroke:rgb(245,245,247)"/>
<polyline points="3,-1.6 3,-1.8" style="fill:none;stroke:rgb(245,245,247)"/>
<polyline points="4.5,-1.6 4.5,-1.8" style="fill:none;stroke:rgb(245,245,247)"/>
<polyline points="3,-2 3,-2.2" style="fill:none;stroke:rgb(245,245,247)"/>
<polyline points="4.5,-2 4.5,-2.2" style="fill:none;stroke:rgb(245,245,247)"/>
<polyline points="3,-2.4 3,-2.6" style="fill:none;stroke:rgb(245,245,247)"/>
<polyline points="4.5,-2.4 4.5,-2.6" style="fill:none;stroke:rgb(245,245,247)"/>
<polyline points="3,-2.8 3,-3" style="fill:none;stroke:rgb(245,245,247)"/>
<polyline points="4.5,-2.8 4.5,-3" style="fill:none;stroke:rgb(245,245,247)"/>
<text x="3.2" y="-1.5" style="font-family:sans-serif;font-size:0.25;fill:rgb(245,245,247)">void(1.5, 0)</text>
<polygon points="4.5,0 7.5,0 7.5,-3 4.5,-3" style="fill:rgba(255,255,255,0.10);stroke:none;stroke:none"/>
<polygon points="4.5,0 7.5,0 7.5,-3 4.5,-3 4.5,0" style="fill:none;fill:none;stroke:rgb(245,245,247);stroke-width:0.05"/>
<text x="5.424" y="-1.34" style="font-family:sans-serif;font-size:0.32;fill:rgb(245,245,247);stroke:none">room b</text>
<text x="0" y="0.9" style="font-family:sans-serif;font-size:0.3;fill:rgb(245,245,247)">A Void reserves space without producing a Space.</text>
</g>
</svg>
