<svg xmlns="http://www.w3.org/2000/svg" width="800" height="600" viewBox="-0.5 -3.5 9 4">
<defs>
<marker id="arrowhead-end" markerWidth="10" markerHeight="7" refX="10" refY="3.5" orient="auto"><polygon points="0 0, 10 3.5, 0 7" fill="rgb(211,211,211)"/></marker>
<marker id="arrowhead-start" markerWidth="10" markerHeight="7" refX="0" refY="3.5" orient="auto"><polygon points="10 0, 0 3.5, 10 7" fill="rgb(211,211,211)"/></marker>
</defs>
<g stroke-width="0.011">
<polygon points="0,0 3,0 3,-1 1,-1 1,-3 0,-3" style="fill:rgba(255,255,255,0.10);stroke:none;stroke:none"/>
<polygon points="0,0 3,0 3,-1 1,-1 1,-3 0,-3 0,0" style="fill:none;fill:none;stroke:rgb(245,245,247);stroke-width:0.05"/>
<text x="0.3" y="-0.3" style="font-family:sans-serif;font-size:0.35;fill:rgb(245,245,247);stroke:none">a</text>
<polygon points="8,0 5,0 5,-1 7,-1 7,-3 8,-3" style="fill:rgba(255,255,255,0.10);stroke:none;stroke:none"/>
<polygon points="8,0 5,0 5,-1 7,-1 7,-3 8,-3 8,0" style="fill:none;fill:none;stroke:rgb(245,245,247);stroke-width:0.05"/>
<text x="5.2" y="-0.3" style="font-family:sans-serif;font-size:0.35;fill:rgb(245,245,247);stroke:none">mirror_x(a)</text>
</g>
</svg>
